<svg width="444" height="305" viewBox="0 0 444 305" fill="none" xmlns="http://www.w3.org/2000/svg">
    <path d="M58.2812 16.4531H28.7031V27.2344H37.1875C42.5938 27.2344 47.375 28.1562 51.5312 30C55.6875 31.8438 58.875 34.4531 61.0938 37.8281C63.3438 41.1719 64.4688 45.0156 64.4688 49.3594C64.4688 56.0781 61.9688 61.5312 56.9688 65.7188C52 69.9062 45.3125 72 36.9062 72H12.1562V3.75H58.2812V16.4531ZM28.7031 39.8906V59.3438H37.1406C40.4844 59.3438 43.125 58.4062 45.0625 56.5312C47.0312 54.6562 48.0156 52.2344 48.0156 49.2656C48.0156 46.4531 47.0469 44.1875 45.1094 42.4688C43.1719 40.75 40.4844 39.8906 37.0469 39.8906H28.7031ZM112.188 3.75H128.641V72H112.188V28.9688L87.6719 72H71.2188V3.75H87.6719V46.8281L112.188 3.75ZM184.844 16.4531H155.266V27.2344H163.75C169.156 27.2344 173.938 28.1562 178.094 30C182.25 31.8438 185.438 34.4531 187.656 37.8281C189.906 41.1719 191.031 45.0156 191.031 49.3594C191.031 56.0781 188.531 61.5312 183.531 65.7188C178.562 69.9062 171.875 72 163.469 72H138.719V3.75H184.844V16.4531ZM155.266 39.8906V59.3438H163.703C167.047 59.3438 169.688 58.4062 171.625 56.5312C173.594 54.6562 174.578 52.2344 174.578 49.2656C174.578 46.4531 173.609 44.1875 171.672 42.4688C169.734 40.75 167.047 39.8906 163.609 39.8906H155.266ZM256.141 3.75V72H239.688V16.4531H224.359L223.234 39.375C222.766 47.2812 221.672 53.5938 219.953 58.3125C218.234 63.0312 215.781 66.4844 212.594 68.6719C209.438 70.8281 205.125 71.9375 199.656 72H195.25V59.3438L197.547 59.1094C200.828 58.6406 203.203 56.6406 204.672 53.1094C206.141 49.5469 207.094 43.5625 207.531 35.1562L208.703 3.75H256.141ZM306.438 3.75H322.891V72H306.438V28.9688L281.922 72H265.469V3.75H281.922V46.8281L306.438 3.75ZM69.9531 97.2812C69.9531 103.938 68.7188 109.828 66.25 114.953C63.7812 120.078 60.2656 124.031 55.7031 126.812C51.1719 129.562 46 130.938 40.1875 130.938C34.375 130.938 29.2188 129.609 24.7188 126.953C20.2188 124.266 16.7031 120.438 14.1719 115.469C11.6719 110.5 10.3594 104.797 10.2344 98.3594V94.5156C10.2344 87.8281 11.4531 81.9375 13.8906 76.8438C16.3594 71.7188 19.875 67.7656 24.4375 64.9844C29.0312 62.2031 34.25 60.8125 40.0938 60.8125C45.875 60.8125 51.0312 62.1875 55.5625 64.9375C60.0938 67.6875 63.6094 71.6094 66.1094 76.7031C68.6406 81.7656 69.9219 87.5781 69.9531 94.1406V97.2812ZM53.2188 94.4219C53.2188 87.6406 52.0781 82.5 49.7969 79C47.5469 75.4688 44.3125 73.7031 40.0938 73.7031C31.8438 73.7031 27.4844 79.8906 27.0156 92.2656L26.9688 97.2812C26.9688 103.969 28.0781 109.109 30.2969 112.703C32.5156 116.297 35.8125 118.094 40.1875 118.094C44.3438 118.094 47.5469 116.328 49.7969 112.797C52.0469 109.266 53.1875 104.188 53.2188 97.5625V94.4219ZM127.984 74.4531H107.5V130H91.0469V74.4531H70.9375V61.75H127.984V74.4531ZM177.297 101.078H151.422V117.344H181.984V130H134.969V61.75H182.078V74.4531H151.422V88.8438H177.297V101.078ZM212.828 103H205.047V130H188.594V61.75H205.047V88.1406H211.375L224.5 61.75H244.422L225.672 93.25L246.766 130H227.312L212.828 103ZM289.609 117.25H267.062L263.125 130H245.547L270.578 61.75H286.047L311.266 130H293.594L289.609 117.25ZM271 104.547H285.672L278.312 80.875L271 104.547ZM33.7656 119.75L49 167.234L64.1875 119.75H85.8438V188H69.3438V172.062L70.9375 139.438L54.4375 188H43.5625L27.0156 139.391L28.6094 172.062V188H12.1562V119.75H33.7656ZM135.953 175.25H113.406L109.469 188H91.8906L116.922 119.75H132.391L157.609 188H139.938L135.953 175.25ZM117.344 162.547H132.016L124.656 138.875L117.344 162.547ZM186.766 161H178.984V188H162.531V119.75H178.984V146.141H185.312L198.438 119.75H218.359L199.609 151.25L220.703 188H201.25L186.766 161ZM241.234 164.844V188H224.781V119.75H252.016C257.234 119.75 261.844 120.719 265.844 122.656C269.875 124.562 272.984 127.297 275.172 130.859C277.391 134.391 278.5 138.406 278.5 142.906C278.5 149.562 276.109 154.891 271.328 158.891C266.578 162.859 260.047 164.844 251.734 164.844H241.234ZM241.234 152.141H252.016C255.203 152.141 257.625 151.344 259.281 149.75C260.969 148.156 261.812 145.906 261.812 143C261.812 139.812 260.953 137.266 259.234 135.359C257.516 133.453 255.172 132.484 252.203 132.453H241.234V152.141ZM345.109 155.281C345.109 161.938 343.875 167.828 341.406 172.953C338.938 178.078 335.422 182.031 330.859 184.812C326.328 187.562 321.156 188.938 315.344 188.938C309.531 188.938 304.375 187.609 299.875 184.953C295.375 182.266 291.859 178.438 289.328 173.469C286.828 168.5 285.516 162.797 285.391 156.359V152.516C285.391 145.828 286.609 139.938 289.047 134.844C291.516 129.719 295.031 125.766 299.594 122.984C304.188 120.203 309.406 118.812 315.25 118.812C321.031 118.812 326.188 120.188 330.719 122.938C335.25 125.688 338.766 129.609 341.266 134.703C343.797 139.766 345.078 145.578 345.109 152.141V155.281ZM328.375 152.422C328.375 145.641 327.234 140.5 324.953 137C322.703 133.469 319.469 131.703 315.25 131.703C307 131.703 302.641 137.891 302.172 150.266L302.125 155.281C302.125 161.969 303.234 167.109 305.453 170.703C307.672 174.297 310.969 176.094 315.344 176.094C319.5 176.094 322.703 174.328 324.953 170.797C327.203 167.266 328.344 162.188 328.375 155.562V152.422ZM69.4844 246H53.0312V190.453H28.5156V246H12.0625V177.75H69.4844V246ZM96.2031 222.844V246H79.75V177.75H106.984C112.203 177.75 116.812 178.719 120.812 180.656C124.844 182.562 127.953 185.297 130.141 188.859C132.359 192.391 133.469 196.406 133.469 200.906C133.469 207.562 131.078 212.891 126.297 216.891C121.547 220.859 115.016 222.844 106.703 222.844H96.2031ZM96.2031 210.141H106.984C110.172 210.141 112.594 209.344 114.25 207.75C115.938 206.156 116.781 203.906 116.781 201C116.781 197.812 115.922 195.266 114.203 193.359C112.484 191.453 110.141 190.484 107.172 190.453H96.2031V210.141ZM184.609 217.078H158.734V233.344H189.297V246H142.281V177.75H189.391V190.453H158.734V204.844H184.609V217.078ZM253.328 246H236.875V190.453H212.359V246H195.906V177.75H253.328V246ZM302.359 233.25H279.812L275.875 246H258.297L283.328 177.75H298.797L324.016 246H306.344L302.359 233.25ZM283.75 220.547H298.422L291.062 196.875L283.75 220.547ZM345.484 222.844V246H329.031V177.75H356.266C361.484 177.75 366.094 178.719 370.094 180.656C374.125 182.562 377.234 185.297 379.422 188.859C381.641 192.391 382.75 196.406 382.75 200.906C382.75 207.562 380.359 212.891 375.578 216.891C370.828 220.859 364.297 222.844 355.984 222.844H345.484ZM345.484 210.141H356.266C359.453 210.141 361.875 209.344 363.531 207.75C365.219 206.156 366.062 203.906 366.062 201C366.062 197.812 365.203 195.266 363.484 193.359C361.766 191.453 359.422 190.484 356.453 190.453H345.484V210.141ZM421.984 233.25H399.438L395.5 246H377.922L402.953 177.75H418.422L443.641 246H425.969L421.984 233.25ZM403.375 220.547H418.047L410.688 196.875L403.375 220.547ZM65.7344 248.453H45.25V304H28.7969V248.453H8.6875V235.75H65.7344V248.453ZM129.203 271.281C129.203 277.938 127.969 283.828 125.5 288.953C123.031 294.078 119.516 298.031 114.953 300.812C110.422 303.562 105.25 304.938 99.4375 304.938C93.625 304.938 88.4688 303.609 83.9688 300.953C79.4688 298.266 75.9531 294.438 73.4219 289.469C70.9219 284.5 69.6094 278.797 69.4844 272.359V268.516C69.4844 261.828 70.7031 255.938 73.1406 250.844C75.6094 245.719 79.125 241.766 83.6875 238.984C88.2812 236.203 93.5 234.812 99.3438 234.812C105.125 234.812 110.281 236.188 114.812 238.938C119.344 241.688 122.859 245.609 125.359 250.703C127.891 255.766 129.172 261.578 129.203 268.141V271.281ZM112.469 268.422C112.469 261.641 111.328 256.5 109.047 253C106.797 249.469 103.562 247.703 99.3438 247.703C91.0938 247.703 86.7344 253.891 86.2656 266.266L86.2188 271.281C86.2188 277.969 87.3281 283.109 89.5469 286.703C91.7656 290.297 95.0625 292.094 99.4375 292.094C103.594 292.094 106.797 290.328 109.047 286.797C111.297 283.266 112.438 278.188 112.469 271.562V268.422ZM137.688 304V235.75H162.203C170.984 235.75 177.656 237.359 182.219 240.578C186.812 243.797 189.109 248.469 189.109 254.594C189.109 258.125 188.297 261.141 186.672 263.641C185.047 266.141 182.656 267.984 179.5 269.172C183.062 270.109 185.797 271.859 187.703 274.422C189.609 276.984 190.562 280.109 190.562 283.797C190.562 290.484 188.438 295.516 184.188 298.891C179.969 302.234 173.703 303.938 165.391 304H137.688ZM154.141 274.984V291.344H164.922C167.891 291.344 170.172 290.672 171.766 289.328C173.359 287.953 174.156 286.031 174.156 283.562C174.156 277.875 171.328 275.016 165.672 274.984H154.141ZM154.141 264.203H162.719C166.312 264.172 168.875 263.516 170.406 262.234C171.938 260.953 172.703 259.062 172.703 256.562C172.703 253.688 171.875 251.625 170.219 250.375C168.562 249.094 165.891 248.453 162.203 248.453H154.141V264.203Z" fill="white" fill-opacity="0.15"/>
    <path d="M34.1875 9.96875H14.4688V17.1562H20.125C23.7292 17.1562 26.9167 17.7708 29.6875 19C32.4583 20.2292 34.5833 21.9688 36.0625 24.2188C37.5625 26.4479 38.3125 29.0104 38.3125 31.9062C38.3125 36.3854 36.6458 40.0208 33.3125 42.8125C30 45.6042 25.5417 47 19.9375 47H3.4375V1.5H34.1875V9.96875ZM14.4688 25.5938V38.5625H20.0938C22.3229 38.5625 24.0833 37.9375 25.375 36.6875C26.6875 35.4375 27.3438 33.8229 27.3438 31.8438C27.3438 29.9688 26.6979 28.4583 25.4062 27.3125C24.1146 26.1667 22.3229 25.5938 20.0312 25.5938H14.4688ZM70.125 1.5H81.0938V47H70.125V18.3125L53.7812 47H42.8125V1.5H53.7812V30.2188L70.125 1.5ZM118.562 9.96875H98.8438V17.1562H104.5C108.104 17.1562 111.292 17.7708 114.062 19C116.833 20.2292 118.958 21.9688 120.438 24.2188C121.938 26.4479 122.688 29.0104 122.688 31.9062C122.688 36.3854 121.021 40.0208 117.688 42.8125C114.375 45.6042 109.917 47 104.312 47H87.8125V1.5H118.562V9.96875ZM98.8438 25.5938V38.5625H104.469C106.698 38.5625 108.458 37.9375 109.75 36.6875C111.062 35.4375 111.719 33.8229 111.719 31.8438C111.719 29.9688 111.073 28.4583 109.781 27.3125C108.49 26.1667 106.698 25.5938 104.406 25.5938H98.8438ZM166.094 1.5V47H155.125V9.96875H144.906L144.156 25.25C143.844 30.5208 143.115 34.7292 141.969 37.875C140.823 41.0208 139.188 43.3229 137.062 44.7812C134.958 46.2188 132.083 46.9583 128.438 47H125.5V38.5625L127.031 38.4062C129.219 38.0938 130.802 36.7604 131.781 34.4062C132.76 32.0312 133.396 28.0417 133.688 22.4375L134.469 1.5H166.094ZM199.625 1.5H210.594V47H199.625V18.3125L183.281 47H172.312V1.5H183.281V30.2188L199.625 1.5ZM255.844 25.1875C255.844 29.625 255.021 33.5521 253.375 36.9688C251.729 40.3854 249.385 43.0208 246.344 44.875C243.323 46.7083 239.875 47.625 236 47.625C232.125 47.625 228.688 46.7396 225.688 44.9688C222.688 43.1771 220.344 40.625 218.656 37.3125C216.99 34 216.115 30.1979 216.031 25.9062V23.3438C216.031 18.8854 216.844 14.9583 218.469 11.5625C220.115 8.14583 222.458 5.51042 225.5 3.65625C228.562 1.80208 232.042 0.875 235.938 0.875C239.792 0.875 243.229 1.79167 246.25 3.625C249.271 5.45833 251.615 8.07292 253.281 11.4688C254.969 14.8438 255.823 18.7188 255.844 23.0938V25.1875ZM244.688 23.2812C244.688 18.7604 243.927 15.3333 242.406 13C240.906 10.6458 238.75 9.46875 235.938 9.46875C230.438 9.46875 227.531 13.5938 227.219 21.8438L227.188 25.1875C227.188 29.6458 227.927 33.0729 229.406 35.4688C230.885 37.8646 233.083 39.0625 236 39.0625C238.771 39.0625 240.906 37.8854 242.406 35.5312C243.906 33.1771 244.667 29.7917 244.688 25.375V23.2812ZM294.531 9.96875H280.875V47H269.906V9.96875H256.5V1.5H294.531V9.96875ZM327.406 27.7188H310.156V38.5625H330.531V47H299.188V1.5H330.594V9.96875H310.156V19.5625H327.406V27.7188ZM351.094 29H345.906V47H334.938V1.5H345.906V19.0938H350.125L358.875 1.5H372.156L359.656 22.5L373.719 47H360.75L351.094 29ZM402.281 38.5H387.25L384.625 47H372.906L389.594 1.5H399.906L416.719 47H404.938L402.281 38.5ZM389.875 30.0312H399.656L394.75 14.25L389.875 30.0312ZM17.8438 52.5L28 84.1562L38.125 52.5H52.5625V98H41.5625V87.375L42.625 65.625L31.625 98H24.375L13.3438 65.5938L14.4062 87.375V98H3.4375V52.5H17.8438ZM85.9688 89.5H70.9375L68.3125 98H56.5938L73.2812 52.5H83.5938L100.406 98H88.625L85.9688 89.5ZM73.5625 81.0312H83.3438L78.4375 65.25L73.5625 81.0312ZM119.844 80H114.656V98H103.688V52.5H114.656V70.0938H118.875L127.625 52.5H140.906L128.406 73.5L142.469 98H129.5L119.844 80ZM156.156 82.5625V98H145.188V52.5H163.344C166.823 52.5 169.896 53.1458 172.562 54.4375C175.25 55.7083 177.323 57.5312 178.781 59.9062C180.26 62.2604 181 64.9375 181 67.9375C181 72.375 179.406 75.9271 176.219 78.5938C173.052 81.2396 168.698 82.5625 163.156 82.5625H156.156ZM156.156 74.0938H163.344C165.469 74.0938 167.083 73.5625 168.188 72.5C169.312 71.4375 169.875 69.9375 169.875 68C169.875 65.875 169.302 64.1771 168.156 62.9062C167.01 61.6354 165.448 60.9896 163.469 60.9688H156.156V74.0938ZM225.406 76.1875C225.406 80.625 224.583 84.5521 222.938 87.9688C221.292 91.3854 218.948 94.0208 215.906 95.875C212.885 97.7083 209.438 98.625 205.562 98.625C201.688 98.625 198.25 97.7396 195.25 95.9688C192.25 94.1771 189.906 91.625 188.219 88.3125C186.552 85 185.677 81.1979 185.594 76.9062V74.3438C185.594 69.8854 186.406 65.9583 188.031 62.5625C189.677 59.1458 192.021 56.5104 195.062 54.6562C198.125 52.8021 201.604 51.875 205.5 51.875C209.354 51.875 212.792 52.7917 215.812 54.625C218.833 56.4583 221.177 59.0729 222.844 62.4688C224.531 65.8438 225.385 69.7188 225.406 74.0938V76.1875ZM214.25 74.2812C214.25 69.7604 213.49 66.3333 211.969 64C210.469 61.6458 208.312 60.4688 205.5 60.4688C200 60.4688 197.094 64.5938 196.781 72.8438L196.75 76.1875C196.75 80.6458 197.49 84.0729 198.969 86.4688C200.448 88.8646 202.646 90.0625 205.562 90.0625C208.333 90.0625 210.469 88.8854 211.969 86.5312C213.469 84.1771 214.229 80.7917 214.25 76.375V74.2812ZM41.6562 149H30.6875V111.969H14.3438V149H3.375V103.5H41.6562V149ZM59.4688 133.562V149H48.5V103.5H66.6562C70.1354 103.5 73.2083 104.146 75.875 105.438C78.5625 106.708 80.6354 108.531 82.0938 110.906C83.5729 113.26 84.3125 115.938 84.3125 118.938C84.3125 123.375 82.7188 126.927 79.5312 129.594C76.3646 132.24 72.0104 133.562 66.4688 133.562H59.4688ZM59.4688 125.094H66.6562C68.7812 125.094 70.3958 124.562 71.5 123.5C72.625 122.438 73.1875 120.938 73.1875 119C73.1875 116.875 72.6146 115.177 71.4688 113.906C70.3229 112.635 68.7604 111.99 66.7812 111.969H59.4688V125.094ZM118.406 129.719H101.156V140.562H121.531V149H90.1875V103.5H121.594V111.969H101.156V121.562H118.406V129.719ZM164.219 149H153.25V111.969H136.906V149H125.938V103.5H164.219V149ZM196.906 140.5H181.875L179.25 149H167.531L184.219 103.5H194.531L211.344 149H199.562L196.906 140.5ZM184.5 132.031H194.281L189.375 116.25L184.5 132.031ZM225.656 133.562V149H214.688V103.5H232.844C236.323 103.5 239.396 104.146 242.062 105.438C244.75 106.708 246.823 108.531 248.281 110.906C249.76 113.26 250.5 115.938 250.5 118.938C250.5 123.375 248.906 126.927 245.719 129.594C242.552 132.24 238.198 133.562 232.656 133.562H225.656ZM225.656 125.094H232.844C234.969 125.094 236.583 124.562 237.688 123.5C238.812 122.438 239.375 120.938 239.375 119C239.375 116.875 238.802 115.177 237.656 113.906C236.51 112.635 234.948 111.99 232.969 111.969H225.656V125.094ZM276.656 140.5H261.625L259 149H247.281L263.969 103.5H274.281L291.094 149H279.312L276.656 140.5ZM264.25 132.031H274.031L269.125 116.25L264.25 132.031ZM326.406 111.969H312.75V149H301.781V111.969H288.375V103.5H326.406V111.969ZM368.719 127.188C368.719 131.625 367.896 135.552 366.25 138.969C364.604 142.385 362.26 145.021 359.219 146.875C356.198 148.708 352.75 149.625 348.875 149.625C345 149.625 341.562 148.74 338.562 146.969C335.562 145.177 333.219 142.625 331.531 139.312C329.865 136 328.99 132.198 328.906 127.906V125.344C328.906 120.885 329.719 116.958 331.344 113.562C332.99 110.146 335.333 107.51 338.375 105.656C341.438 103.802 344.917 102.875 348.812 102.875C352.667 102.875 356.104 103.792 359.125 105.625C362.146 107.458 364.49 110.073 366.156 113.469C367.844 116.844 368.698 120.719 368.719 125.094V127.188ZM357.562 125.281C357.562 120.76 356.802 117.333 355.281 115C353.781 112.646 351.625 111.469 348.812 111.469C343.312 111.469 340.406 115.594 340.094 123.844L340.062 127.188C340.062 131.646 340.802 135.073 342.281 137.469C343.76 139.865 345.958 141.062 348.875 141.062C351.646 141.062 353.781 139.885 355.281 137.531C356.781 135.177 357.542 131.792 357.562 127.375V125.281ZM374.375 149V103.5H390.719C396.573 103.5 401.021 104.573 404.062 106.719C407.125 108.865 408.656 111.979 408.656 116.062C408.656 118.417 408.115 120.427 407.031 122.094C405.948 123.76 404.354 124.99 402.25 125.781C404.625 126.406 406.448 127.573 407.719 129.281C408.99 130.99 409.625 133.073 409.625 135.531C409.625 139.99 408.208 143.344 405.375 145.594C402.562 147.823 398.385 148.958 392.844 149H374.375ZM385.344 129.656V140.562H392.531C394.51 140.562 396.031 140.115 397.094 139.219C398.156 138.302 398.688 137.021 398.688 135.375C398.688 131.583 396.802 129.677 393.031 129.656H385.344ZM385.344 122.469H391.062C393.458 122.448 395.167 122.01 396.188 121.156C397.208 120.302 397.719 119.042 397.719 117.375C397.719 115.458 397.167 114.083 396.062 113.25C394.958 112.396 393.177 111.969 390.719 111.969H385.344V122.469Z" fill="white"/>
</svg>
