<svg width="268" height="110" viewBox="0 0 268 110" fill="none" xmlns="http://www.w3.org/2000/svg">
    <path d="M28.8438 2.5L39 34.1562L49.125 2.5H63.5625V48H52.5625V37.375L53.625 15.625L42.625 48H35.375L24.3438 15.5938L25.4062 37.375V48H14.4375V2.5H28.8438ZM109.094 26.1875C109.094 30.625 108.271 34.5521 106.625 37.9688C104.979 41.3854 102.635 44.0208 99.5938 45.875C96.5729 47.7083 93.125 48.625 89.25 48.625C85.375 48.625 81.9375 47.7396 78.9375 45.9688C75.9375 44.1771 73.5938 41.625 71.9062 38.3125C70.2396 35 69.3646 31.1979 69.2812 26.9062V24.3438C69.2812 19.8854 70.0938 15.9583 71.7188 12.5625C73.3646 9.14583 75.7083 6.51042 78.75 4.65625C81.8125 2.80208 85.2917 1.875 89.1875 1.875C93.0417 1.875 96.4792 2.79167 99.5 4.625C102.521 6.45833 104.865 9.07292 106.531 12.4688C108.219 15.8438 109.073 19.7188 109.094 24.0938V26.1875ZM97.9375 24.2812C97.9375 19.7604 97.1771 16.3333 95.6562 14C94.1562 11.6458 92 10.4688 89.1875 10.4688C83.6875 10.4688 80.7812 14.5938 80.4688 22.8438L80.4375 26.1875C80.4375 30.6458 81.1771 34.0729 82.6562 36.4688C84.1354 38.8646 86.3333 40.0625 89.25 40.0625C92.0208 40.0625 94.1562 38.8854 95.6562 36.5312C97.1562 34.1771 97.9167 30.7917 97.9375 26.375V24.2812ZM136.906 15.125C136.906 13.6875 136.344 12.5312 135.219 11.6562C134.115 10.7812 132.615 10.3438 130.719 10.3438C128.948 10.3438 127.521 10.7708 126.438 11.625C125.375 12.4583 124.844 13.5625 124.844 14.9375H113.906C113.906 12.4375 114.615 10.1979 116.031 8.21875C117.469 6.23958 119.49 4.69792 122.094 3.59375C124.698 2.46875 127.573 1.90625 130.719 1.90625C136.135 1.90625 140.344 3.04167 143.344 5.3125C146.365 7.58333 147.875 10.7604 147.875 14.8438C147.875 16.9271 147.26 18.8333 146.031 20.5625C144.823 22.2708 143.146 23.625 141 24.625C143.458 25.5 145.333 26.8333 146.625 28.625C147.938 30.3958 148.594 32.6042 148.594 35.25C148.594 39.3333 146.969 42.5833 143.719 45C140.469 47.3958 136.135 48.5938 130.719 48.5938C125.698 48.5938 121.531 47.4167 118.219 45.0625C114.906 42.6875 113.25 39.4583 113.25 35.375H124.25C124.25 36.7292 124.854 37.875 126.062 38.8125C127.271 39.7292 128.823 40.1875 130.719 40.1875C132.76 40.1875 134.417 39.7083 135.688 38.75C136.958 37.7917 137.594 36.5417 137.594 35C137.594 32.75 137.052 31.1667 135.969 30.25C134.885 29.3125 133.302 28.8438 131.219 28.8438H125.375V20.7188H131.594C135.135 20.6146 136.906 18.75 136.906 15.125ZM185.75 10.9688H165.969V48H155V2.5H185.75V10.9688ZM14.8438 90.875C16.5312 89.1875 17.75 87.5104 18.5 85.8438C19.2708 84.1771 19.7188 82.2396 19.8438 80.0312L19.9375 77.7188L20.125 65.1875H46.4688V90.875H51.5312V109.25H40.9688V99H22.6562V109.25H11.8438L11.8125 90.875H14.8438ZM26.9688 90.875H35.9688V73.3125H30.5625L30.5312 76.0938C30.3854 82.1771 29.1979 87.1042 26.9688 90.875ZM55.8438 99V65.1875H70.3438C74.9896 65.1875 78.5417 66 81 67.625C83.4792 69.25 84.7188 71.5938 84.7188 74.6562C84.7188 76.2188 84.1771 77.625 83.0938 78.875C82.0104 80.1042 80.4271 81.0521 78.3438 81.7188C81.0312 82.1771 83.1042 83.0729 84.5625 84.4062C86.0208 85.7188 86.75 87.3646 86.75 89.3438C86.75 92.5312 85.5417 94.9375 83.125 96.5625C80.7292 98.1667 77.2708 98.9792 72.75 99H55.8438ZM66.4062 85.2188V90.9375H72.5625C73.875 90.9375 74.8125 90.7083 75.375 90.25C75.9375 89.7917 76.2188 89.0938 76.2188 88.1562C76.2188 86.2812 75.1354 85.3021 72.9688 85.2188H66.4062ZM66.4062 78.7188H70.75C72.0208 78.7188 72.9062 78.5104 73.4062 78.0938C73.9271 77.6562 74.1875 77.0208 74.1875 76.1875C74.1875 75.1042 73.875 74.3438 73.25 73.9062C72.625 73.4688 71.6562 73.25 70.3438 73.25H66.4062V78.7188ZM89.75 81.7812C89.75 78.4062 90.4062 75.4062 91.7188 72.7812C93.0312 70.1354 94.9167 68.1042 97.375 66.6875C99.8333 65.2708 102.719 64.5625 106.031 64.5625C111.094 64.5625 115.083 66.1354 118 69.2812C120.917 72.4062 122.375 76.6667 122.375 82.0625V82.4375C122.375 87.7083 120.906 91.8958 117.969 95C115.052 98.0833 111.094 99.625 106.094 99.625C101.281 99.625 97.4167 98.1875 94.5 95.3125C91.5833 92.4167 90.0104 88.5 89.7812 83.5625L89.75 81.7812ZM100.281 82.4375C100.281 85.5625 100.771 87.8542 101.75 89.3125C102.729 90.7708 104.177 91.5 106.094 91.5C109.844 91.5 111.76 88.6146 111.844 82.8438V81.7812C111.844 75.7188 109.906 72.6875 106.031 72.6875C102.51 72.6875 100.604 75.3021 100.312 80.5312L100.281 82.4375ZM146.688 65.1875H157.25V99H146.688V79.3125L137.406 99H126.812V65.1875H137.406V84.8125L146.688 65.1875ZM153.844 50.9375C153.844 53.7917 152.792 56.1042 150.688 57.875C148.583 59.6458 145.781 60.5312 142.281 60.5312C138.781 60.5312 135.979 59.6458 133.875 57.875C131.771 56.1042 130.719 53.7917 130.719 50.9375H137.875C137.875 52.1875 138.26 53.1667 139.031 53.875C139.823 54.5625 140.906 54.9062 142.281 54.9062C143.656 54.9062 144.719 54.5729 145.469 53.9062C146.24 53.2188 146.625 52.2292 146.625 50.9375H153.844ZM193 99H182.438V86.4688H173.219V99H162.688V65.1875H173.219V78.375H182.438V65.1875H193V99ZM197.438 81.7812C197.438 78.4062 198.094 75.4062 199.406 72.7812C200.719 70.1354 202.604 68.1042 205.062 66.6875C207.521 65.2708 210.406 64.5625 213.719 64.5625C218.781 64.5625 222.771 66.1354 225.688 69.2812C228.604 72.4062 230.062 76.6667 230.062 82.0625V82.4375C230.062 87.7083 228.594 91.8958 225.656 95C222.74 98.0833 218.781 99.625 213.781 99.625C208.969 99.625 205.104 98.1875 202.188 95.3125C199.271 92.4167 197.698 88.5 197.469 83.5625L197.438 81.7812ZM207.969 82.4375C207.969 85.5625 208.458 87.8542 209.438 89.3125C210.417 90.7708 211.865 91.5 213.781 91.5C217.531 91.5 219.448 88.6146 219.531 82.8438V81.7812C219.531 75.7188 217.594 72.6875 213.719 72.6875C210.198 72.6875 208.292 75.3021 208 80.5312L207.969 82.4375ZM254.375 65.1875H264.938V99H254.375V79.3125L245.094 99H234.5V65.1875H245.094V84.8125L254.375 65.1875Z" fill="white" fill-opacity="0.15"/>
    <path d="M13.3828 1.875L21 25.6172L28.5938 1.875H39.4219V36H31.1719V28.0312L31.9688 11.7188L23.7188 36H18.2812L10.0078 11.6953L10.8047 28.0312V36H2.57812V1.875H13.3828ZM73.5703 19.6406C73.5703 22.9688 72.9531 25.9141 71.7188 28.4766C70.4844 31.0391 68.7266 33.0156 66.4453 34.4062C64.1797 35.7812 61.5938 36.4688 58.6875 36.4688C55.7812 36.4688 53.2031 35.8047 50.9531 34.4766C48.7031 33.1328 46.9453 31.2188 45.6797 28.7344C44.4297 26.25 43.7734 23.3984 43.7109 20.1797V18.2578C43.7109 14.9141 44.3203 11.9688 45.5391 9.42188C46.7734 6.85938 48.5312 4.88281 50.8125 3.49219C53.1094 2.10156 55.7188 1.40625 58.6406 1.40625C61.5312 1.40625 64.1094 2.09375 66.375 3.46875C68.6406 4.84375 70.3984 6.80469 71.6484 9.35156C72.9141 11.8828 73.5547 14.7891 73.5703 18.0703V19.6406ZM65.2031 18.2109C65.2031 14.8203 64.6328 12.25 63.4922 10.5C62.3672 8.73438 60.75 7.85156 58.6406 7.85156C54.5156 7.85156 52.3359 10.9453 52.1016 17.1328L52.0781 19.6406C52.0781 22.9844 52.6328 25.5547 53.7422 27.3516C54.8516 29.1484 56.5 30.0469 58.6875 30.0469C60.7656 30.0469 62.3672 29.1641 63.4922 27.3984C64.6172 25.6328 65.1875 23.0938 65.2031 19.7812V18.2109ZM94.4297 11.3438C94.4297 10.2656 94.0078 9.39844 93.1641 8.74219C92.3359 8.08594 91.2109 7.75781 89.7891 7.75781C88.4609 7.75781 87.3906 8.07813 86.5781 8.71875C85.7812 9.34375 85.3828 10.1719 85.3828 11.2031H77.1797C77.1797 9.32812 77.7109 7.64844 78.7734 6.16406C79.8516 4.67969 81.3672 3.52344 83.3203 2.69531C85.2734 1.85156 87.4297 1.42969 89.7891 1.42969C93.8516 1.42969 97.0078 2.28125 99.2578 3.98438C101.523 5.6875 102.656 8.07031 102.656 11.1328C102.656 12.6953 102.195 14.125 101.273 15.4219C100.367 16.7031 99.1094 17.7188 97.5 18.4688C99.3438 19.125 100.75 20.125 101.719 21.4688C102.703 22.7969 103.195 24.4531 103.195 26.4375C103.195 29.5 101.977 31.9375 99.5391 33.75C97.1016 35.5469 93.8516 36.4453 89.7891 36.4453C86.0234 36.4453 82.8984 35.5625 80.4141 33.7969C77.9297 32.0156 76.6875 29.5938 76.6875 26.5312H84.9375C84.9375 27.5469 85.3906 28.4062 86.2969 29.1094C87.2031 29.7969 88.3672 30.1406 89.7891 30.1406C91.3203 30.1406 92.5625 29.7812 93.5156 29.0625C94.4688 28.3438 94.9453 27.4062 94.9453 26.25C94.9453 24.5625 94.5391 23.375 93.7266 22.6875C92.9141 21.9844 91.7266 21.6328 90.1641 21.6328H85.7812V15.5391H90.4453C93.1016 15.4609 94.4297 14.0625 94.4297 11.3438ZM131.062 8.22656H116.227V36H108V1.875H131.062V8.22656ZM34.5 83.3906H27.1172V75H8.53125V83.3672H0.914062L0.328125 68.6719H2.74219C4.00781 67.8281 5.02344 66.3828 5.78906 64.3359C6.57031 62.2734 7.125 59.3203 7.45312 55.4766L8.50781 40.875H31.7344V68.6719H35.3672L34.5 83.3906ZM12.0469 68.6719H23.5312V47.2266H16.2656L15.6328 55.7578C15.1641 61.2891 13.9688 65.5938 12.0469 68.6719ZM38.2031 75V40.875H50.4609C54.8516 40.875 58.1875 41.6797 60.4688 43.2891C62.7656 44.8984 63.9141 47.2344 63.9141 50.2969C63.9141 52.0625 63.5078 53.5703 62.6953 54.8203C61.8828 56.0703 60.6875 56.9922 59.1094 57.5859C60.8906 58.0547 62.2578 58.9297 63.2109 60.2109C64.1641 61.4922 64.6406 63.0547 64.6406 64.8984C64.6406 68.2422 63.5781 70.7578 61.4531 72.4453C59.3438 74.1172 56.2109 74.9688 52.0547 75H38.2031ZM46.4297 60.4922V68.6719H51.8203C53.3047 68.6719 54.4453 68.3359 55.2422 67.6641C56.0391 66.9766 56.4375 66.0156 56.4375 64.7812C56.4375 61.9375 55.0234 60.5078 52.1953 60.4922H46.4297ZM46.4297 55.1016H50.7188C52.5156 55.0859 53.7969 54.7578 54.5625 54.1172C55.3281 53.4766 55.7109 52.5312 55.7109 51.2812C55.7109 49.8438 55.2969 48.8125 54.4688 48.1875C53.6406 47.5469 52.3047 47.2266 50.4609 47.2266H46.4297V55.1016ZM98.0859 58.6406C98.0859 61.9688 97.4688 64.9141 96.2344 67.4766C95 70.0391 93.2422 72.0156 90.9609 73.4062C88.6953 74.7812 86.1094 75.4688 83.2031 75.4688C80.2969 75.4688 77.7188 74.8047 75.4688 73.4766C73.2188 72.1328 71.4609 70.2188 70.1953 67.7344C68.9453 65.25 68.2891 62.3984 68.2266 59.1797V57.2578C68.2266 53.9141 68.8359 50.9688 70.0547 48.4219C71.2891 45.8594 73.0469 43.8828 75.3281 42.4922C77.625 41.1016 80.2344 40.4062 83.1562 40.4062C86.0469 40.4062 88.625 41.0938 90.8906 42.4688C93.1562 43.8438 94.9141 45.8047 96.1641 48.3516C97.4297 50.8828 98.0703 53.7891 98.0859 57.0703V58.6406ZM89.7188 57.2109C89.7188 53.8203 89.1484 51.25 88.0078 49.5C86.8828 47.7344 85.2656 46.8516 83.1562 46.8516C79.0312 46.8516 76.8516 49.9453 76.6172 56.1328L76.5938 58.6406C76.5938 61.9844 77.1484 64.5547 78.2578 66.3516C79.3672 68.1484 81.0156 69.0469 83.2031 69.0469C85.2812 69.0469 86.8828 68.1641 88.0078 66.3984C89.1328 64.6328 89.7031 62.0938 89.7188 58.7812V57.2109ZM122.344 40.875H130.57V75H122.344V53.4844L110.086 75H101.859V40.875H110.086V62.4141L122.344 40.875ZM164.133 75H155.953V60.75H143.836V75H135.609V40.875H143.836V54.4219H155.953V40.875H164.133V75ZM198.258 58.6406C198.258 61.9688 197.641 64.9141 196.406 67.4766C195.172 70.0391 193.414 72.0156 191.133 73.4062C188.867 74.7812 186.281 75.4688 183.375 75.4688C180.469 75.4688 177.891 74.8047 175.641 73.4766C173.391 72.1328 171.633 70.2188 170.367 67.7344C169.117 65.25 168.461 62.3984 168.398 59.1797V57.2578C168.398 53.9141 169.008 50.9688 170.227 48.4219C171.461 45.8594 173.219 43.8828 175.5 42.4922C177.797 41.1016 180.406 40.4062 183.328 40.4062C186.219 40.4062 188.797 41.0938 191.062 42.4688C193.328 43.8438 195.086 45.8047 196.336 48.3516C197.602 50.8828 198.242 53.7891 198.258 57.0703V58.6406ZM189.891 57.2109C189.891 53.8203 189.32 51.25 188.18 49.5C187.055 47.7344 185.438 46.8516 183.328 46.8516C179.203 46.8516 177.023 49.9453 176.789 56.1328L176.766 58.6406C176.766 61.9844 177.32 64.5547 178.43 66.3516C179.539 68.1484 181.188 69.0469 183.375 69.0469C185.453 69.0469 187.055 68.1641 188.18 66.3984C189.305 64.6328 189.875 62.0938 189.891 58.7812V57.2109ZM222.516 40.875H230.742V75H222.516V53.4844L210.258 75H202.031V40.875H210.258V62.4141L222.516 40.875ZM225.117 31.6875C225.117 33.8281 224.328 35.5625 222.75 36.8906C221.172 38.2188 219.07 38.8828 216.445 38.8828C213.82 38.8828 211.719 38.2188 210.141 36.8906C208.562 35.5625 207.773 33.8281 207.773 31.6875H213.141C213.141 32.625 213.43 33.3594 214.008 33.8906C214.602 34.4062 215.414 34.6641 216.445 34.6641C217.477 34.6641 218.273 34.4141 218.836 33.9141C219.414 33.3984 219.703 32.6562 219.703 31.6875H225.117Z" fill="white"/>
</svg>
