<svg width="188" height="154" viewBox="0 0 188 154" fill="none" xmlns="http://www.w3.org/2000/svg">
    <path d="M28.8438 2.5L39 34.1562L49.125 2.5H63.5625V48H52.5625V37.375L53.625 15.625L42.625 48H35.375L24.3438 15.5938L25.4062 37.375V48H14.4375V2.5H28.8438ZM109.094 26.1875C109.094 30.625 108.271 34.5521 106.625 37.9688C104.979 41.3854 102.635 44.0208 99.5938 45.875C96.5729 47.7083 93.125 48.625 89.25 48.625C85.375 48.625 81.9375 47.7396 78.9375 45.9688C75.9375 44.1771 73.5938 41.625 71.9062 38.3125C70.2396 35 69.3646 31.1979 69.2812 26.9062V24.3438C69.2812 19.8854 70.0938 15.9583 71.7188 12.5625C73.3646 9.14583 75.7083 6.51042 78.75 4.65625C81.8125 2.80208 85.2917 1.875 89.1875 1.875C93.0417 1.875 96.4792 2.79167 99.5 4.625C102.521 6.45833 104.865 9.07292 106.531 12.4688C108.219 15.8438 109.073 19.7188 109.094 24.0938V26.1875ZM97.9375 24.2812C97.9375 19.7604 97.1771 16.3333 95.6562 14C94.1562 11.6458 92 10.4688 89.1875 10.4688C83.6875 10.4688 80.7812 14.5938 80.4688 22.8438L80.4375 26.1875C80.4375 30.6458 81.1771 34.0729 82.6562 36.4688C84.1354 38.8646 86.3333 40.0625 89.25 40.0625C92.0208 40.0625 94.1562 38.8854 95.6562 36.5312C97.1562 34.1771 97.9167 30.7917 97.9375 26.375V24.2812ZM136.906 15.125C136.906 13.6875 136.344 12.5312 135.219 11.6562C134.115 10.7812 132.615 10.3438 130.719 10.3438C128.948 10.3438 127.521 10.7708 126.438 11.625C125.375 12.4583 124.844 13.5625 124.844 14.9375H113.906C113.906 12.4375 114.615 10.1979 116.031 8.21875C117.469 6.23958 119.49 4.69792 122.094 3.59375C124.698 2.46875 127.573 1.90625 130.719 1.90625C136.135 1.90625 140.344 3.04167 143.344 5.3125C146.365 7.58333 147.875 10.7604 147.875 14.8438C147.875 16.9271 147.26 18.8333 146.031 20.5625C144.823 22.2708 143.146 23.625 141 24.625C143.458 25.5 145.333 26.8333 146.625 28.625C147.938 30.3958 148.594 32.6042 148.594 35.25C148.594 39.3333 146.969 42.5833 143.719 45C140.469 47.3958 136.135 48.5938 130.719 48.5938C125.698 48.5938 121.531 47.4167 118.219 45.0625C114.906 42.6875 113.25 39.4583 113.25 35.375H124.25C124.25 36.7292 124.854 37.875 126.062 38.8125C127.271 39.7292 128.823 40.1875 130.719 40.1875C132.76 40.1875 134.417 39.7083 135.688 38.75C136.958 37.7917 137.594 36.5417 137.594 35C137.594 32.75 137.052 31.1667 135.969 30.25C134.885 29.3125 133.302 28.8438 131.219 28.8438H125.375V20.7188H131.594C135.135 20.6146 136.906 18.75 136.906 15.125ZM185.75 10.9688H165.969V48H155V2.5H185.75V10.9688ZM25.4062 83.5625V99H14.4375V53.5H32.5938C36.0729 53.5 39.1458 54.1458 41.8125 55.4375C44.5 56.7083 46.5729 58.5312 48.0312 60.9062C49.5104 63.2604 50.25 65.9375 50.25 68.9375C50.25 73.375 48.6562 76.9271 45.4688 79.5938C42.3021 82.2396 37.9479 83.5625 32.4062 83.5625H25.4062ZM25.4062 75.0938H32.5938C34.7188 75.0938 36.3333 74.5625 37.4375 73.5C38.5625 72.4375 39.125 70.9375 39.125 69C39.125 66.875 38.5521 65.1771 37.4062 63.9062C36.2604 62.6354 34.6979 61.9896 32.7188 61.9688H25.4062V75.0938ZM94.6562 77.1875C94.6562 81.625 93.8333 85.5521 92.1875 88.9688C90.5417 92.3854 88.1979 95.0208 85.1562 96.875C82.1354 98.7083 78.6875 99.625 74.8125 99.625C70.9375 99.625 67.5 98.7396 64.5 96.9688C61.5 95.1771 59.1562 92.625 57.4688 89.3125C55.8021 86 54.9271 82.1979 54.8438 77.9062V75.3438C54.8438 70.8854 55.6562 66.9583 57.2812 63.5625C58.9271 60.1458 61.2708 57.5104 64.3125 55.6562C67.375 53.8021 70.8542 52.875 74.75 52.875C78.6042 52.875 82.0417 53.7917 85.0625 55.625C88.0833 57.4583 90.4271 60.0729 92.0938 63.4688C93.7812 66.8438 94.6354 70.7188 94.6562 75.0938V77.1875ZM83.5 75.2812C83.5 70.7604 82.7396 67.3333 81.2188 65C79.7188 62.6458 77.5625 61.4688 74.75 61.4688C69.25 61.4688 66.3438 65.5938 66.0312 73.8438L66 77.1875C66 81.6458 66.7396 85.0729 68.2188 87.4688C69.6979 89.8646 71.8958 91.0625 74.8125 91.0625C77.5833 91.0625 79.7188 89.8854 81.2188 87.5312C82.7188 85.1771 83.4792 81.7917 83.5 77.375V75.2812ZM122.469 66.125C122.469 64.6875 121.906 63.5312 120.781 62.6562C119.677 61.7812 118.177 61.3438 116.281 61.3438C114.51 61.3438 113.083 61.7708 112 62.625C110.938 63.4583 110.406 64.5625 110.406 65.9375H99.4688C99.4688 63.4375 100.177 61.1979 101.594 59.2188C103.031 57.2396 105.052 55.6979 107.656 54.5938C110.26 53.4688 113.135 52.9062 116.281 52.9062C121.698 52.9062 125.906 54.0417 128.906 56.3125C131.927 58.5833 133.438 61.7604 133.438 65.8438C133.438 67.9271 132.823 69.8333 131.594 71.5625C130.385 73.2708 128.708 74.625 126.562 75.625C129.021 76.5 130.896 77.8333 132.188 79.625C133.5 81.3958 134.156 83.6042 134.156 86.25C134.156 90.3333 132.531 93.5833 129.281 96C126.031 98.3958 121.698 99.5938 116.281 99.5938C111.26 99.5938 107.094 98.4167 103.781 96.0625C100.469 93.6875 98.8125 90.4583 98.8125 86.375H109.812C109.812 87.7292 110.417 88.875 111.625 89.8125C112.833 90.7292 114.385 91.1875 116.281 91.1875C118.323 91.1875 119.979 90.7083 121.25 89.75C122.521 88.7917 123.156 87.5417 123.156 86C123.156 83.75 122.615 82.1667 121.531 81.25C120.448 80.3125 118.865 79.8438 116.781 79.8438H110.938V71.7188H117.156C120.698 71.6146 122.469 69.75 122.469 66.125ZM179.156 77.1875C179.156 81.625 178.333 85.5521 176.688 88.9688C175.042 92.3854 172.698 95.0208 169.656 96.875C166.635 98.7083 163.188 99.625 159.312 99.625C155.438 99.625 152 98.7396 149 96.9688C146 95.1771 143.656 92.625 141.969 89.3125C140.302 86 139.427 82.1979 139.344 77.9062V75.3438C139.344 70.8854 140.156 66.9583 141.781 63.5625C143.427 60.1458 145.771 57.5104 148.812 55.6562C151.875 53.8021 155.354 52.875 159.25 52.875C163.104 52.875 166.542 53.7917 169.562 55.625C172.583 57.4583 174.927 60.0729 176.594 63.4688C178.281 66.8438 179.135 70.7188 179.156 75.0938V77.1875ZM168 75.2812C168 70.7604 167.24 67.3333 165.719 65C164.219 62.6458 162.062 61.4688 159.25 61.4688C153.75 61.4688 150.844 65.5938 150.531 73.8438L150.5 77.1875C150.5 81.6458 151.24 85.0729 152.719 87.4688C154.198 89.8646 156.396 91.0625 159.312 91.0625C162.083 91.0625 164.219 89.8854 165.719 87.5312C167.219 85.1771 167.979 81.7917 168 77.375V75.2812ZM14.4375 150V104.5H30.7812C36.6354 104.5 41.0833 105.573 44.125 107.719C47.1875 109.865 48.7188 112.979 48.7188 117.062C48.7188 119.417 48.1771 121.427 47.0938 123.094C46.0104 124.76 44.4167 125.99 42.3125 126.781C44.6875 127.406 46.5104 128.573 47.7812 130.281C49.0521 131.99 49.6875 134.073 49.6875 136.531C49.6875 140.99 48.2708 144.344 45.4375 146.594C42.625 148.823 38.4479 149.958 32.9062 150H14.4375ZM25.4062 130.656V141.562H32.5938C34.5729 141.562 36.0938 141.115 37.1562 140.219C38.2188 139.302 38.75 138.021 38.75 136.375C38.75 132.583 36.8646 130.677 33.0938 130.656H25.4062ZM25.4062 123.469H31.125C33.5208 123.448 35.2292 123.01 36.25 122.156C37.2708 121.302 37.7812 120.042 37.7812 118.375C37.7812 116.458 37.2292 115.083 36.125 114.25C35.0208 113.396 33.2396 112.969 30.7812 112.969H25.4062V123.469ZM66.7188 120.156H72.375C75.9792 120.156 79.1667 120.771 81.9375 122C84.7083 123.229 86.8333 124.969 88.3125 127.219C89.8125 129.448 90.5625 132.01 90.5625 134.906C90.5625 139.385 88.8958 143.021 85.5625 145.812C82.25 148.604 77.7917 150 72.1875 150H55.7188V104.5H66.7188V120.156ZM104.812 150H93.875V104.5H104.812V150ZM66.7188 128.594V141.562H72.3438C74.5729 141.562 76.3333 140.938 77.625 139.688C78.9375 138.438 79.5938 136.823 79.5938 134.844C79.5938 132.969 78.9479 131.458 77.6562 130.312C76.3646 129.167 74.5729 128.594 72.2812 128.594H66.7188ZM138.25 104.5H149.219V150H138.25V121.312L121.906 150H110.938V104.5H121.906V133.219L138.25 104.5Z" fill="white" fill-opacity="0.15"/>
    <path d="M13.3828 1.875L21 25.6172L28.5938 1.875H39.4219V36H31.1719V28.0312L31.9688 11.7188L23.7188 36H18.2812L10.0078 11.6953L10.8047 28.0312V36H2.57812V1.875H13.3828ZM73.5703 19.6406C73.5703 22.9688 72.9531 25.9141 71.7188 28.4766C70.4844 31.0391 68.7266 33.0156 66.4453 34.4062C64.1797 35.7812 61.5938 36.4688 58.6875 36.4688C55.7812 36.4688 53.2031 35.8047 50.9531 34.4766C48.7031 33.1328 46.9453 31.2188 45.6797 28.7344C44.4297 26.25 43.7734 23.3984 43.7109 20.1797V18.2578C43.7109 14.9141 44.3203 11.9688 45.5391 9.42188C46.7734 6.85938 48.5312 4.88281 50.8125 3.49219C53.1094 2.10156 55.7188 1.40625 58.6406 1.40625C61.5312 1.40625 64.1094 2.09375 66.375 3.46875C68.6406 4.84375 70.3984 6.80469 71.6484 9.35156C72.9141 11.8828 73.5547 14.7891 73.5703 18.0703V19.6406ZM65.2031 18.2109C65.2031 14.8203 64.6328 12.25 63.4922 10.5C62.3672 8.73438 60.75 7.85156 58.6406 7.85156C54.5156 7.85156 52.3359 10.9453 52.1016 17.1328L52.0781 19.6406C52.0781 22.9844 52.6328 25.5547 53.7422 27.3516C54.8516 29.1484 56.5 30.0469 58.6875 30.0469C60.7656 30.0469 62.3672 29.1641 63.4922 27.3984C64.6172 25.6328 65.1875 23.0938 65.2031 19.7812V18.2109ZM94.4297 11.3438C94.4297 10.2656 94.0078 9.39844 93.1641 8.74219C92.3359 8.08594 91.2109 7.75781 89.7891 7.75781C88.4609 7.75781 87.3906 8.07813 86.5781 8.71875C85.7812 9.34375 85.3828 10.1719 85.3828 11.2031H77.1797C77.1797 9.32812 77.7109 7.64844 78.7734 6.16406C79.8516 4.67969 81.3672 3.52344 83.3203 2.69531C85.2734 1.85156 87.4297 1.42969 89.7891 1.42969C93.8516 1.42969 97.0078 2.28125 99.2578 3.98438C101.523 5.6875 102.656 8.07031 102.656 11.1328C102.656 12.6953 102.195 14.125 101.273 15.4219C100.367 16.7031 99.1094 17.7188 97.5 18.4688C99.3438 19.125 100.75 20.125 101.719 21.4688C102.703 22.7969 103.195 24.4531 103.195 26.4375C103.195 29.5 101.977 31.9375 99.5391 33.75C97.1016 35.5469 93.8516 36.4453 89.7891 36.4453C86.0234 36.4453 82.8984 35.5625 80.4141 33.7969C77.9297 32.0156 76.6875 29.5938 76.6875 26.5312H84.9375C84.9375 27.5469 85.3906 28.4062 86.2969 29.1094C87.2031 29.7969 88.3672 30.1406 89.7891 30.1406C91.3203 30.1406 92.5625 29.7812 93.5156 29.0625C94.4688 28.3438 94.9453 27.4062 94.9453 26.25C94.9453 24.5625 94.5391 23.375 93.7266 22.6875C92.9141 21.9844 91.7266 21.6328 90.1641 21.6328H85.7812V15.5391H90.4453C93.1016 15.4609 94.4297 14.0625 94.4297 11.3438ZM131.062 8.22656H116.227V36H108V1.875H131.062V8.22656ZM10.8047 63.4219V75H2.57812V40.875H16.1953C18.8047 40.875 21.1094 41.3594 23.1094 42.3281C25.125 43.2812 26.6797 44.6484 27.7734 46.4297C28.8828 48.1953 29.4375 50.2031 29.4375 52.4531C29.4375 55.7812 28.2422 58.4453 25.8516 60.4453C23.4766 62.4297 20.2109 63.4219 16.0547 63.4219H10.8047ZM10.8047 57.0703H16.1953C17.7891 57.0703 19 56.6719 19.8281 55.875C20.6719 55.0781 21.0938 53.9531 21.0938 52.5C21.0938 50.9062 20.6641 49.6328 19.8047 48.6797C18.9453 47.7266 17.7734 47.2422 16.2891 47.2266H10.8047V57.0703ZM62.7422 58.6406C62.7422 61.9688 62.125 64.9141 60.8906 67.4766C59.6562 70.0391 57.8984 72.0156 55.6172 73.4062C53.3516 74.7812 50.7656 75.4688 47.8594 75.4688C44.9531 75.4688 42.375 74.8047 40.125 73.4766C37.875 72.1328 36.1172 70.2188 34.8516 67.7344C33.6016 65.25 32.9453 62.3984 32.8828 59.1797V57.2578C32.8828 53.9141 33.4922 50.9688 34.7109 48.4219C35.9453 45.8594 37.7031 43.8828 39.9844 42.4922C42.2812 41.1016 44.8906 40.4062 47.8125 40.4062C50.7031 40.4062 53.2812 41.0938 55.5469 42.4688C57.8125 43.8438 59.5703 45.8047 60.8203 48.3516C62.0859 50.8828 62.7266 53.7891 62.7422 57.0703V58.6406ZM54.375 57.2109C54.375 53.8203 53.8047 51.25 52.6641 49.5C51.5391 47.7344 49.9219 46.8516 47.8125 46.8516C43.6875 46.8516 41.5078 49.9453 41.2734 56.1328L41.25 58.6406C41.25 61.9844 41.8047 64.5547 42.9141 66.3516C44.0234 68.1484 45.6719 69.0469 47.8594 69.0469C49.9375 69.0469 51.5391 68.1641 52.6641 66.3984C53.7891 64.6328 54.3594 62.0938 54.375 58.7812V57.2109ZM83.6016 50.3438C83.6016 49.2656 83.1797 48.3984 82.3359 47.7422C81.5078 47.0859 80.3828 46.7578 78.9609 46.7578C77.6328 46.7578 76.5625 47.0781 75.75 47.7188C74.9531 48.3438 74.5547 49.1719 74.5547 50.2031H66.3516C66.3516 48.3281 66.8828 46.6484 67.9453 45.1641C69.0234 43.6797 70.5391 42.5234 72.4922 41.6953C74.4453 40.8516 76.6016 40.4297 78.9609 40.4297C83.0234 40.4297 86.1797 41.2812 88.4297 42.9844C90.6953 44.6875 91.8281 47.0703 91.8281 50.1328C91.8281 51.6953 91.3672 53.125 90.4453 54.4219C89.5391 55.7031 88.2812 56.7188 86.6719 57.4688C88.5156 58.125 89.9219 59.125 90.8906 60.4688C91.875 61.7969 92.3672 63.4531 92.3672 65.4375C92.3672 68.5 91.1484 70.9375 88.7109 72.75C86.2734 74.5469 83.0234 75.4453 78.9609 75.4453C75.1953 75.4453 72.0703 74.5625 69.5859 72.7969C67.1016 71.0156 65.8594 68.5938 65.8594 65.5312H74.1094C74.1094 66.5469 74.5625 67.4062 75.4688 68.1094C76.375 68.7969 77.5391 69.1406 78.9609 69.1406C80.4922 69.1406 81.7344 68.7812 82.6875 68.0625C83.6406 67.3438 84.1172 66.4062 84.1172 65.25C84.1172 63.5625 83.7109 62.375 82.8984 61.6875C82.0859 60.9844 80.8984 60.6328 79.3359 60.6328H74.9531V54.5391H79.6172C82.2734 54.4609 83.6016 53.0625 83.6016 50.3438ZM126.117 58.6406C126.117 61.9688 125.5 64.9141 124.266 67.4766C123.031 70.0391 121.273 72.0156 118.992 73.4062C116.727 74.7812 114.141 75.4688 111.234 75.4688C108.328 75.4688 105.75 74.8047 103.5 73.4766C101.25 72.1328 99.4922 70.2188 98.2266 67.7344C96.9766 65.25 96.3203 62.3984 96.2578 59.1797V57.2578C96.2578 53.9141 96.8672 50.9688 98.0859 48.4219C99.3203 45.8594 101.078 43.8828 103.359 42.4922C105.656 41.1016 108.266 40.4062 111.188 40.4062C114.078 40.4062 116.656 41.0938 118.922 42.4688C121.188 43.8438 122.945 45.8047 124.195 48.3516C125.461 50.8828 126.102 53.7891 126.117 57.0703V58.6406ZM117.75 57.2109C117.75 53.8203 117.18 51.25 116.039 49.5C114.914 47.7344 113.297 46.8516 111.188 46.8516C107.062 46.8516 104.883 49.9453 104.648 56.1328L104.625 58.6406C104.625 61.9844 105.18 64.5547 106.289 66.3516C107.398 68.1484 109.047 69.0469 111.234 69.0469C113.312 69.0469 114.914 68.1641 116.039 66.3984C117.164 64.6328 117.734 62.0938 117.75 58.7812V57.2109ZM2.57812 114V79.875H14.8359C19.2266 79.875 22.5625 80.6797 24.8438 82.2891C27.1406 83.8984 28.2891 86.2344 28.2891 89.2969C28.2891 91.0625 27.8828 92.5703 27.0703 93.8203C26.2578 95.0703 25.0625 95.9922 23.4844 96.5859C25.2656 97.0547 26.6328 97.9297 27.5859 99.2109C28.5391 100.492 29.0156 102.055 29.0156 103.898C29.0156 107.242 27.9531 109.758 25.8281 111.445C23.7188 113.117 20.5859 113.969 16.4297 114H2.57812ZM10.8047 99.4922V107.672H16.1953C17.6797 107.672 18.8203 107.336 19.6172 106.664C20.4141 105.977 20.8125 105.016 20.8125 103.781C20.8125 100.938 19.3984 99.5078 16.5703 99.4922H10.8047ZM10.8047 94.1016H15.0938C16.8906 94.0859 18.1719 93.7578 18.9375 93.1172C19.7031 92.4766 20.0859 91.5312 20.0859 90.2812C20.0859 88.8438 19.6719 87.8125 18.8438 87.1875C18.0156 86.5469 16.6797 86.2266 14.8359 86.2266H10.8047V94.1016ZM41.7891 91.6172H46.0312C48.7344 91.6172 51.125 92.0781 53.2031 93C55.2812 93.9219 56.875 95.2266 57.9844 96.9141C59.1094 98.5859 59.6719 100.508 59.6719 102.68C59.6719 106.039 58.4219 108.766 55.9219 110.859C53.4375 112.953 50.0938 114 45.8906 114H33.5391V79.875H41.7891V91.6172ZM70.3594 114H62.1562V79.875H70.3594V114ZM41.7891 97.9453V107.672H46.0078C47.6797 107.672 49 107.203 49.9688 106.266C50.9531 105.328 51.4453 104.117 51.4453 102.633C51.4453 101.227 50.9609 100.094 49.9922 99.2344C49.0234 98.375 47.6797 97.9453 45.9609 97.9453H41.7891ZM95.4375 79.875H103.664V114H95.4375V92.4844L83.1797 114H74.9531V79.875H83.1797V101.414L95.4375 79.875Z" fill="white"/>
</svg>
