<svg width="188" height="154" viewBox="0 0 188 154" fill="none" xmlns="http://www.w3.org/2000/svg">
    <path d="M28.8438 2.5L39 34.1562L49.125 2.5H63.5625V48H52.5625V37.375L53.625 15.625L42.625 48H35.375L24.3438 15.5938L25.4062 37.375V48H14.4375V2.5H28.8438ZM109.094 26.1875C109.094 30.625 108.271 34.5521 106.625 37.9688C104.979 41.3854 102.635 44.0208 99.5938 45.875C96.5729 47.7083 93.125 48.625 89.25 48.625C85.375 48.625 81.9375 47.7396 78.9375 45.9688C75.9375 44.1771 73.5938 41.625 71.9062 38.3125C70.2396 35 69.3646 31.1979 69.2812 26.9062V24.3438C69.2812 19.8854 70.0938 15.9583 71.7188 12.5625C73.3646 9.14583 75.7083 6.51042 78.75 4.65625C81.8125 2.80208 85.2917 1.875 89.1875 1.875C93.0417 1.875 96.4792 2.79167 99.5 4.625C102.521 6.45833 104.865 9.07292 106.531 12.4688C108.219 15.8438 109.073 19.7188 109.094 24.0938V26.1875ZM97.9375 24.2812C97.9375 19.7604 97.1771 16.3333 95.6562 14C94.1562 11.6458 92 10.4688 89.1875 10.4688C83.6875 10.4688 80.7812 14.5938 80.4688 22.8438L80.4375 26.1875C80.4375 30.6458 81.1771 34.0729 82.6562 36.4688C84.1354 38.8646 86.3333 40.0625 89.25 40.0625C92.0208 40.0625 94.1562 38.8854 95.6562 36.5312C97.1562 34.1771 97.9167 30.7917 97.9375 26.375V24.2812ZM136.906 15.125C136.906 13.6875 136.344 12.5312 135.219 11.6562C134.115 10.7812 132.615 10.3438 130.719 10.3438C128.948 10.3438 127.521 10.7708 126.438 11.625C125.375 12.4583 124.844 13.5625 124.844 14.9375H113.906C113.906 12.4375 114.615 10.1979 116.031 8.21875C117.469 6.23958 119.49 4.69792 122.094 3.59375C124.698 2.46875 127.573 1.90625 130.719 1.90625C136.135 1.90625 140.344 3.04167 143.344 5.3125C146.365 7.58333 147.875 10.7604 147.875 14.8438C147.875 16.9271 147.26 18.8333 146.031 20.5625C144.823 22.2708 143.146 23.625 141 24.625C143.458 25.5 145.333 26.8333 146.625 28.625C147.938 30.3958 148.594 32.6042 148.594 35.25C148.594 39.3333 146.969 42.5833 143.719 45C140.469 47.3958 136.135 48.5938 130.719 48.5938C125.698 48.5938 121.531 47.4167 118.219 45.0625C114.906 42.6875 113.25 39.4583 113.25 35.375H124.25C124.25 36.7292 124.854 37.875 126.062 38.8125C127.271 39.7292 128.823 40.1875 130.719 40.1875C132.76 40.1875 134.417 39.7083 135.688 38.75C136.958 37.7917 137.594 36.5417 137.594 35C137.594 32.75 137.052 31.1667 135.969 30.25C134.885 29.3125 133.302 28.8438 131.219 28.8438H125.375V20.7188H131.594C135.135 20.6146 136.906 18.75 136.906 15.125ZM185.75 10.9688H165.969V48H155V2.5H185.75V10.9688ZM28.25 91.5C29.7292 91.5 30.875 91.1042 31.6875 90.3125C32.5 89.5 32.8958 88.375 32.875 86.9375H42.75C42.75 90.6458 41.4167 93.6875 38.75 96.0625C36.1042 98.4375 32.6875 99.625 28.5 99.625C23.5833 99.625 19.7083 98.0833 16.875 95C14.0417 91.9167 12.625 87.6458 12.625 82.1875V81.75C12.625 78.3333 13.25 75.3229 14.5 72.7188C15.7708 70.0938 17.5938 68.0833 19.9688 66.6875C22.3438 65.2708 25.1562 64.5625 28.4062 64.5625C32.8021 64.5625 36.2917 65.7812 38.875 68.2188C41.4583 70.6562 42.75 73.9583 42.75 78.125H32.875C32.875 76.375 32.4479 75.0312 31.5938 74.0938C30.7396 73.1562 29.5938 72.6875 28.1562 72.6875C25.4271 72.6875 23.8333 74.4271 23.375 77.9062C23.2292 79.0104 23.1562 80.5312 23.1562 82.4688C23.1562 85.8646 23.5625 88.2188 24.375 89.5312C25.1875 90.8438 26.4792 91.5 28.25 91.5ZM66.875 65.1875H77.4375V99H66.875V79.3125L57.5938 99H47V65.1875H57.5938V84.8125L66.875 65.1875ZM113.188 99H102.625V86.4688H93.4062V99H82.875V65.1875H93.4062V78.375H102.625V65.1875H113.188V99ZM138.625 65.1875H149.188V99H138.625V79.3125L129.344 99H118.75V65.1875H129.344V84.8125L138.625 65.1875ZM174.5 65.1875H185.062V99H174.5V79.3125L165.219 99H154.625V65.1875H165.219V84.8125L174.5 65.1875ZM181.656 50.9375C181.656 53.7917 180.604 56.1042 178.5 57.875C176.396 59.6458 173.594 60.5312 170.094 60.5312C166.594 60.5312 163.792 59.6458 161.688 57.875C159.583 56.1042 158.531 53.7917 158.531 50.9375H165.688C165.688 52.1875 166.073 53.1667 166.844 53.875C167.635 54.5625 168.719 54.9062 170.094 54.9062C171.469 54.9062 172.531 54.5729 173.281 53.9062C174.052 53.2188 174.438 52.2292 174.438 50.9375H181.656Z" fill="white" fill-opacity="0.15"/>
    <path d="M13.3828 1.875L21 25.6172L28.5938 1.875H39.4219V36H31.1719V28.0312L31.9688 11.7188L23.7188 36H18.2812L10.0078 11.6953L10.8047 28.0312V36H2.57812V1.875H13.3828ZM73.5703 19.6406C73.5703 22.9688 72.9531 25.9141 71.7188 28.4766C70.4844 31.0391 68.7266 33.0156 66.4453 34.4062C64.1797 35.7812 61.5938 36.4688 58.6875 36.4688C55.7812 36.4688 53.2031 35.8047 50.9531 34.4766C48.7031 33.1328 46.9453 31.2188 45.6797 28.7344C44.4297 26.25 43.7734 23.3984 43.7109 20.1797V18.2578C43.7109 14.9141 44.3203 11.9688 45.5391 9.42188C46.7734 6.85938 48.5312 4.88281 50.8125 3.49219C53.1094 2.10156 55.7188 1.40625 58.6406 1.40625C61.5312 1.40625 64.1094 2.09375 66.375 3.46875C68.6406 4.84375 70.3984 6.80469 71.6484 9.35156C72.9141 11.8828 73.5547 14.7891 73.5703 18.0703V19.6406ZM65.2031 18.2109C65.2031 14.8203 64.6328 12.25 63.4922 10.5C62.3672 8.73438 60.75 7.85156 58.6406 7.85156C54.5156 7.85156 52.3359 10.9453 52.1016 17.1328L52.0781 19.6406C52.0781 22.9844 52.6328 25.5547 53.7422 27.3516C54.8516 29.1484 56.5 30.0469 58.6875 30.0469C60.7656 30.0469 62.3672 29.1641 63.4922 27.3984C64.6172 25.6328 65.1875 23.0938 65.2031 19.7812V18.2109ZM94.4297 11.3438C94.4297 10.2656 94.0078 9.39844 93.1641 8.74219C92.3359 8.08594 91.2109 7.75781 89.7891 7.75781C88.4609 7.75781 87.3906 8.07813 86.5781 8.71875C85.7812 9.34375 85.3828 10.1719 85.3828 11.2031H77.1797C77.1797 9.32812 77.7109 7.64844 78.7734 6.16406C79.8516 4.67969 81.3672 3.52344 83.3203 2.69531C85.2734 1.85156 87.4297 1.42969 89.7891 1.42969C93.8516 1.42969 97.0078 2.28125 99.2578 3.98438C101.523 5.6875 102.656 8.07031 102.656 11.1328C102.656 12.6953 102.195 14.125 101.273 15.4219C100.367 16.7031 99.1094 17.7188 97.5 18.4688C99.3438 19.125 100.75 20.125 101.719 21.4688C102.703 22.7969 103.195 24.4531 103.195 26.4375C103.195 29.5 101.977 31.9375 99.5391 33.75C97.1016 35.5469 93.8516 36.4453 89.7891 36.4453C86.0234 36.4453 82.8984 35.5625 80.4141 33.7969C77.9297 32.0156 76.6875 29.5938 76.6875 26.5312H84.9375C84.9375 27.5469 85.3906 28.4062 86.2969 29.1094C87.2031 29.7969 88.3672 30.1406 89.7891 30.1406C91.3203 30.1406 92.5625 29.7812 93.5156 29.0625C94.4688 28.3438 94.9453 27.4062 94.9453 26.25C94.9453 24.5625 94.5391 23.375 93.7266 22.6875C92.9141 21.9844 91.7266 21.6328 90.1641 21.6328H85.7812V15.5391H90.4453C93.1016 15.4609 94.4297 14.0625 94.4297 11.3438ZM131.062 8.22656H116.227V36H108V1.875H131.062V8.22656ZM30.1875 63.4453C30.0781 65.8203 29.4375 67.9219 28.2656 69.75C27.0938 71.5625 25.4453 72.9688 23.3203 73.9688C21.2109 74.9688 18.7969 75.4688 16.0781 75.4688C11.5938 75.4688 8.0625 74.0078 5.48438 71.0859C2.90625 68.1641 1.61719 64.0391 1.61719 58.7109V57.0234C1.61719 53.6797 2.19531 50.7578 3.35156 48.2578C4.52344 45.7422 6.20312 43.8047 8.39062 42.4453C10.5781 41.0703 13.1094 40.3828 15.9844 40.3828C20.125 40.3828 23.4531 41.4766 25.9688 43.6641C28.4844 45.8359 29.9141 48.8359 30.2578 52.6641H22.0547C21.9922 50.5859 21.4688 49.0938 20.4844 48.1875C19.5 47.2812 18 46.8281 15.9844 46.8281C13.9375 46.8281 12.4375 47.5938 11.4844 49.125C10.5312 50.6562 10.0312 53.1016 9.98438 56.4609V58.875C9.98438 62.5156 10.4375 65.1172 11.3438 66.6797C12.2656 68.2422 13.8438 69.0234 16.0781 69.0234C17.9688 69.0234 19.4141 68.5781 20.4141 67.6875C21.4141 66.7969 21.9453 65.3828 22.0078 63.4453H30.1875ZM54.0938 40.875H62.3203V75H54.0938V53.4844L41.8359 75H33.6094V40.875H41.8359V62.4141L54.0938 40.875ZM95.8828 75H87.7031V60.75H75.5859V75H67.3594V40.875H75.5859V54.4219H87.7031V40.875H95.8828V75ZM121.125 40.875H129.352V75H121.125V53.4844L108.867 75H100.641V40.875H108.867V62.4141L121.125 40.875ZM154.406 40.875H162.633V75H154.406V53.4844L142.148 75H133.922V40.875H142.148V62.4141L154.406 40.875ZM157.008 31.6875C157.008 33.8281 156.219 35.5625 154.641 36.8906C153.062 38.2188 150.961 38.8828 148.336 38.8828C145.711 38.8828 143.609 38.2188 142.031 36.8906C140.453 35.5625 139.664 33.8281 139.664 31.6875H145.031C145.031 32.625 145.32 33.3594 145.898 33.8906C146.492 34.4062 147.305 34.6641 148.336 34.6641C149.367 34.6641 150.164 34.4141 150.727 33.9141C151.305 33.3984 151.594 32.6562 151.594 31.6875H157.008Z" fill="white"/>
</svg>
