<svg width="246" height="155" viewBox="0 0 246 155" fill="none" xmlns="http://www.w3.org/2000/svg">
    <path d="M30.5312 31H25.3438V49H14.375V3.5H25.3438V21.0938H29.5625L38.3125 3.5H51.5938L39.0938 24.5L53.1562 49H40.1875L30.5312 31ZM86.7812 32.3438C86.7812 37.5938 85.5938 41.7917 83.2188 44.9375C80.8646 48.0625 77.6771 49.625 73.6562 49.625C70.5521 49.625 68 48.4896 66 46.2188V62H55.4688V15.1875H65.3125L65.625 18.3125C67.6458 15.8125 70.3021 14.5625 73.5938 14.5625C77.7604 14.5625 81 16.1042 83.3125 19.1875C85.625 22.25 86.7812 26.4688 86.7812 31.8438V32.3438ZM76.25 31.6875C76.25 25.6875 74.5 22.6875 71 22.6875C68.5 22.6875 66.8333 23.5833 66 25.375V38.6875C66.9167 40.5625 68.6042 41.5 71.0625 41.5C74.4167 41.5 76.1458 38.6042 76.25 32.8125V31.6875ZM110.5 49C110.125 48.3125 109.792 47.3021 109.5 45.9688C107.562 48.4062 104.854 49.625 101.375 49.625C98.1875 49.625 95.4792 48.6667 93.25 46.75C91.0208 44.8125 89.9062 42.3854 89.9062 39.4688C89.9062 35.8021 91.2604 33.0312 93.9688 31.1562C96.6771 29.2812 100.615 28.3438 105.781 28.3438H109.031V26.5625C109.031 23.4583 107.688 21.9062 105 21.9062C102.5 21.9062 101.25 23.1354 101.25 25.5938H90.7188C90.7188 22.3229 92.1042 19.6667 94.875 17.625C97.6667 15.5833 101.219 14.5625 105.531 14.5625C109.844 14.5625 113.25 15.6146 115.75 17.7188C118.25 19.8229 119.531 22.7083 119.594 26.375V41.3438C119.635 44.4479 120.115 46.8229 121.031 48.4688V49H110.5ZM103.906 42.125C105.219 42.125 106.302 41.8438 107.156 41.2812C108.031 40.7188 108.656 40.0833 109.031 39.375V33.9688H105.969C102.302 33.9688 100.469 35.6146 100.469 38.9062C100.469 39.8646 100.792 40.6458 101.438 41.25C102.083 41.8333 102.906 42.125 103.906 42.125ZM143.219 17.0625C147.635 17.0625 151.135 18.5104 153.719 21.4062C156.323 24.3021 157.625 28.25 157.625 33.25V33.6875C157.625 36.8542 156.969 39.6562 155.656 42.0938C154.344 44.5104 152.448 46.375 149.969 47.6875C147.51 49 144.625 49.6562 141.312 49.6562C136.312 49.6562 132.323 48.0521 129.344 44.8438C126.385 41.6354 124.906 37.2188 124.906 31.5938V30.5938C124.948 22.8854 126.219 16.8229 128.719 12.4062C131.219 7.98958 135.042 5.20833 140.188 4.0625C142.5 3.54167 144.01 3.04167 144.719 2.5625C145.448 2.0625 145.812 1.29167 145.812 0.25H154.281C154.281 2.85417 153.875 4.83333 153.062 6.1875C152.271 7.54167 151 8.66667 149.25 9.5625C147.521 10.4375 145.083 11.1667 141.938 11.75C139.458 12.2083 137.542 13.1875 136.188 14.6875C134.854 16.1667 133.948 18.2396 133.469 20.9062C136.281 18.3438 139.531 17.0625 143.219 17.0625ZM141.25 25.1875C137.396 25.1875 135.469 27.8542 135.469 33.1875V33.6875C135.469 38.9167 137.417 41.5312 141.312 41.5312C145.083 41.5312 147.01 39.0312 147.094 34.0312V33.0312C147.094 27.8021 145.146 25.1875 141.25 25.1875ZM161.125 31.7812C161.125 28.4062 161.781 25.4062 163.094 22.7812C164.406 20.1354 166.292 18.1042 168.75 16.6875C171.208 15.2708 174.094 14.5625 177.406 14.5625C182.469 14.5625 186.458 16.1354 189.375 19.2812C192.292 22.4062 193.75 26.6667 193.75 32.0625V32.4375C193.75 37.7083 192.281 41.8958 189.344 45C186.427 48.0833 182.469 49.625 177.469 49.625C172.656 49.625 168.792 48.1875 165.875 45.3125C162.958 42.4167 161.385 38.5 161.156 33.5625L161.125 31.7812ZM171.656 32.4375C171.656 35.5625 172.146 37.8542 173.125 39.3125C174.104 40.7708 175.552 41.5 177.469 41.5C181.219 41.5 183.135 38.6146 183.219 32.8438V31.7812C183.219 25.7188 181.281 22.6875 177.406 22.6875C173.885 22.6875 171.979 25.3021 171.688 30.5312L171.656 32.4375ZM199.094 49V15.1875H213.594C218.24 15.1875 221.792 16 224.25 17.625C226.729 19.25 227.969 21.5938 227.969 24.6562C227.969 26.2188 227.427 27.625 226.344 28.875C225.26 30.1042 223.677 31.0521 221.594 31.7188C224.281 32.1771 226.354 33.0729 227.812 34.4062C229.271 35.7188 230 37.3646 230 39.3438C230 42.5312 228.792 44.9375 226.375 46.5625C223.979 48.1667 220.521 48.9792 216 49H199.094ZM209.656 35.2188V40.9375H215.812C217.125 40.9375 218.062 40.7083 218.625 40.25C219.188 39.7917 219.469 39.0938 219.469 38.1562C219.469 36.2812 218.385 35.3021 216.219 35.2188H209.656ZM209.656 28.7188H214C215.271 28.7188 216.156 28.5104 216.656 28.0938C217.177 27.6562 217.438 27.0208 217.438 26.1875C217.438 25.1042 217.125 24.3438 216.5 23.9062C215.875 23.4688 214.906 23.25 213.594 23.25H209.656V28.7188ZM25.25 75.4688H30.6562C33.7812 75.4688 36.5312 75.9792 38.9062 77C41.2812 78.0208 43.0938 79.4688 44.3438 81.3438C45.5938 83.2188 46.2188 85.3958 46.2188 87.875C46.2188 91.5208 44.8021 94.4583 41.9688 96.6875C39.1562 98.8958 35.3125 100 30.4375 100H14.6562V66.1875H25.25V75.4688ZM61.8125 100H51.2188V66.1875H61.8125V100ZM25.25 83.5625V91.9375H30.5938C32.1979 91.9375 33.4479 91.5729 34.3438 90.8438C35.2604 90.0938 35.7188 89.0833 35.7188 87.8125C35.7188 86.5625 35.3125 85.5417 34.5 84.75C33.6875 83.9583 32.3854 83.5625 30.5938 83.5625H25.25ZM84.875 100.625C79.6875 100.625 75.4896 99.0833 72.2812 96C69.0729 92.8958 67.4688 88.8646 67.4688 83.9062V83.0312C67.4688 79.5729 68.1042 76.5208 69.375 73.875C70.6667 71.2292 72.5417 69.1875 75 67.75C77.4583 66.2917 80.375 65.5625 83.75 65.5625C88.5 65.5625 92.25 67.0417 95 70C97.75 72.9375 99.125 77.0417 99.125 82.3125V86.4062H78.1875C78.5625 88.3021 79.3854 89.7917 80.6562 90.875C81.9271 91.9583 83.5729 92.5 85.5938 92.5C88.9271 92.5 91.5312 91.3333 93.4062 89L98.2188 94.6875C96.9062 96.5 95.0417 97.9479 92.625 99.0312C90.2292 100.094 87.6458 100.625 84.875 100.625ZM83.6875 73.6875C80.6042 73.6875 78.7708 75.7292 78.1875 79.8125H88.8125V79C88.8542 77.3125 88.4271 76.0104 87.5312 75.0938C86.6354 74.1562 85.3542 73.6875 83.6875 73.6875ZM149.562 100H138.969V74.3125H129.656V100H119.125V66.1875H149.562V100ZM174.25 100C173.875 99.3125 173.542 98.3021 173.25 96.9688C171.312 99.4062 168.604 100.625 165.125 100.625C161.938 100.625 159.229 99.6667 157 97.75C154.771 95.8125 153.656 93.3854 153.656 90.4688C153.656 86.8021 155.01 84.0312 157.719 82.1562C160.427 80.2812 164.365 79.3438 169.531 79.3438H172.781V77.5625C172.781 74.4583 171.438 72.9062 168.75 72.9062C166.25 72.9062 165 74.1354 165 76.5938H154.469C154.469 73.3229 155.854 70.6667 158.625 68.625C161.417 66.5833 164.969 65.5625 169.281 65.5625C173.594 65.5625 177 66.6146 179.5 68.7188C182 70.8229 183.281 73.7083 183.344 77.375V92.3438C183.385 95.4479 183.865 97.8229 184.781 99.4688V100H174.25ZM167.656 93.125C168.969 93.125 170.052 92.8438 170.906 92.2812C171.781 91.7188 172.406 91.0833 172.781 90.375V84.9688H169.719C166.052 84.9688 164.219 86.6146 164.219 89.9062C164.219 90.8646 164.542 91.6458 165.188 92.25C165.833 92.8333 166.656 93.125 167.656 93.125ZM219.406 66.1875V100H208.875V74.3125H202.562L202 84.6562C201.604 89.7812 200.448 93.6146 198.531 96.1562C196.615 98.6979 193.771 99.9792 190 100H186.688L186.562 91.9375L187.656 91.8125C189.052 91.6458 190.083 90.7188 190.75 89.0312C191.438 87.3229 191.875 84.75 192.062 81.3125L192.719 66.1875H219.406ZM12.625 133.781C12.625 130.406 13.2812 127.406 14.5938 124.781C15.9062 122.135 17.7917 120.104 20.25 118.688C22.7083 117.271 25.5938 116.562 28.9062 116.562C33.9688 116.562 37.9583 118.135 40.875 121.281C43.7917 124.406 45.25 128.667 45.25 134.062V134.438C45.25 139.708 43.7812 143.896 40.8438 147C37.9271 150.083 33.9688 151.625 28.9688 151.625C24.1562 151.625 20.2917 150.188 17.375 147.312C14.4583 144.417 12.8854 140.5 12.6562 135.562L12.625 133.781ZM23.1562 134.438C23.1562 137.562 23.6458 139.854 24.625 141.312C25.6042 142.771 27.0521 143.5 28.9688 143.5C32.7188 143.5 34.6354 140.615 34.7188 134.844V133.781C34.7188 127.719 32.7812 124.688 28.9062 124.688C25.3854 124.688 23.4792 127.302 23.1875 132.531L23.1562 134.438ZM79.9375 151H69.3438V140.844C68.1354 141.052 67.0938 141.156 66.2188 141.156C60.6562 141.156 56.4688 140.083 53.6562 137.938C50.8646 135.771 49.4583 132.531 49.4375 128.219V117.188H59.9688V128.312C59.9896 130.146 60.4271 131.396 61.2812 132.062C62.1354 132.708 63.7812 133.031 66.2188 133.031C67.2396 133.031 68.2812 132.938 69.3438 132.75V117.188H79.9375V151ZM100 139.188H96.8438V151H86.2812V117.188H96.8438V129.344H99.875L105.25 117.188H118.75L108.875 132.812H108.906L119.75 151H105.469L100 139.188ZM141.938 117.188H152.5V151H141.938V131.312L132.656 151H122.062V117.188H132.656V136.812L141.938 117.188Z" fill="white" fill-opacity="0.15"/>
    <path d="M14.6484 23.5H10.7578V37H2.53125V2.875H10.7578V16.0703H13.9219L20.4844 2.875H30.4453L21.0703 18.625L31.6172 37H21.8906L14.6484 23.5ZM41.8828 25.4219V37H33.6562V2.875H47.2734C49.8828 2.875 52.1875 3.35938 54.1875 4.32812C56.2031 5.28125 57.7578 6.64844 58.8516 8.42969C59.9609 10.1953 60.5156 12.2031 60.5156 14.4531C60.5156 17.7812 59.3203 20.4453 56.9297 22.4453C54.5547 24.4297 51.2891 25.4219 47.1328 25.4219H41.8828ZM41.8828 19.0703H47.2734C48.8672 19.0703 50.0781 18.6719 50.9062 17.875C51.75 17.0781 52.1719 15.9531 52.1719 14.5C52.1719 12.9062 51.7422 11.6328 50.8828 10.6797C50.0234 9.72656 48.8516 9.24219 47.3672 9.22656H41.8828V19.0703ZM80.1328 30.625H68.8594L66.8906 37H58.1016L70.6172 2.875H78.3516L90.9609 37H82.125L80.1328 30.625ZM70.8281 24.2734H78.1641L74.4844 12.4375L70.8281 24.2734ZM116.531 9.22656H101.742V14.6172H105.984C108.688 14.6172 111.078 15.0781 113.156 16C115.234 16.9219 116.828 18.2266 117.938 19.9141C119.062 21.5859 119.625 23.5078 119.625 25.6797C119.625 29.0391 118.375 31.7656 115.875 33.8594C113.391 35.9531 110.047 37 105.844 37H93.4688V2.875H116.531V9.22656ZM101.742 20.9453V30.6719H105.961C107.633 30.6719 108.953 30.2031 109.922 29.2656C110.906 28.3281 111.398 27.1172 111.398 25.6328C111.398 24.2266 110.914 23.0938 109.945 22.2344C108.977 21.375 107.633 20.9453 105.914 20.9453H101.742ZM152.367 20.6406C152.367 23.9688 151.75 26.9141 150.516 29.4766C149.281 32.0391 147.523 34.0156 145.242 35.4062C142.977 36.7812 140.391 37.4688 137.484 37.4688C134.578 37.4688 132 36.8047 129.75 35.4766C127.5 34.1328 125.742 32.2188 124.477 29.7344C123.227 27.25 122.57 24.3984 122.508 21.1797V19.2578C122.508 15.9141 123.117 12.9688 124.336 10.4219C125.57 7.85938 127.328 5.88281 129.609 4.49219C131.906 3.10156 134.516 2.40625 137.438 2.40625C140.328 2.40625 142.906 3.09375 145.172 4.46875C147.438 5.84375 149.195 7.80469 150.445 10.3516C151.711 12.8828 152.352 15.7891 152.367 19.0703V20.6406ZM144 19.2109C144 15.8203 143.43 13.25 142.289 11.5C141.164 9.73438 139.547 8.85156 137.438 8.85156C133.312 8.85156 131.133 11.9453 130.898 18.1328L130.875 20.6406C130.875 23.9844 131.43 26.5547 132.539 28.3516C133.648 30.1484 135.297 31.0469 137.484 31.0469C139.562 31.0469 141.164 30.1641 142.289 28.3984C143.414 26.6328 143.984 24.0938 144 20.7812V19.2109ZM2.57812 76V41.875H14.8359C19.2266 41.875 22.5625 42.6797 24.8438 44.2891C27.1406 45.8984 28.2891 48.2344 28.2891 51.2969C28.2891 53.0625 27.8828 54.5703 27.0703 55.8203C26.2578 57.0703 25.0625 57.9922 23.4844 58.5859C25.2656 59.0547 26.6328 59.9297 27.5859 61.2109C28.5391 62.4922 29.0156 64.0547 29.0156 65.8984C29.0156 69.2422 27.9531 71.7578 25.8281 73.4453C23.7188 75.1172 20.5859 75.9688 16.4297 76H2.57812ZM10.8047 61.4922V69.6719H16.1953C17.6797 69.6719 18.8203 69.3359 19.6172 68.6641C20.4141 67.9766 20.8125 67.0156 20.8125 65.7812C20.8125 62.9375 19.3984 61.5078 16.5703 61.4922H10.8047ZM10.8047 56.1016H15.0938C16.8906 56.0859 18.1719 55.7578 18.9375 55.1172C19.7031 54.4766 20.0859 53.5312 20.0859 52.2812C20.0859 50.8438 19.6719 49.8125 18.8438 49.1875C18.0156 48.5469 16.6797 48.2266 14.8359 48.2266H10.8047V56.1016ZM41.7891 53.6172H46.0312C48.7344 53.6172 51.125 54.0781 53.2031 55C55.2812 55.9219 56.875 57.2266 57.9844 58.9141C59.1094 60.5859 59.6719 62.5078 59.6719 64.6797C59.6719 68.0391 58.4219 70.7656 55.9219 72.8594C53.4375 74.9531 50.0938 76 45.8906 76H33.5391V41.875H41.7891V53.6172ZM70.3594 76H62.1562V41.875H70.3594V76ZM41.7891 59.9453V69.6719H46.0078C47.6797 69.6719 49 69.2031 49.9688 68.2656C50.9531 67.3281 51.4453 66.1172 51.4453 64.6328C51.4453 63.2266 50.9609 62.0938 49.9922 61.2344C49.0234 60.375 47.6797 59.9453 45.9609 59.9453H41.7891ZM96.5859 61.5391H83.6484V69.6719H98.9297V76H75.4219V41.875H98.9766V48.2266H83.6484V55.4219H96.5859V61.5391ZM142.898 76H134.672V48.2266H122.414V76H114.188V41.875H142.898V76ZM167.414 69.625H156.141L154.172 76H145.383L157.898 41.875H165.633L178.242 76H169.406L167.414 69.625ZM158.109 63.2734H165.445L161.766 51.4375L158.109 63.2734ZM209.883 41.875V76H201.656V48.2266H193.992L193.43 59.6875C193.195 63.6406 192.648 66.7969 191.789 69.1562C190.93 71.5156 189.703 73.2422 188.109 74.3359C186.531 75.4141 184.375 75.9688 181.641 76H179.438V69.6719L180.586 69.5547C182.227 69.3203 183.414 68.3203 184.148 66.5547C184.883 64.7734 185.359 61.7812 185.578 57.5781L186.164 41.875H209.883ZM243.914 59.6406C243.914 62.9688 243.297 65.9141 242.062 68.4766C240.828 71.0391 239.07 73.0156 236.789 74.4062C234.523 75.7812 231.938 76.4688 229.031 76.4688C226.125 76.4688 223.547 75.8047 221.297 74.4766C219.047 73.1328 217.289 71.2188 216.023 68.7344C214.773 66.25 214.117 63.3984 214.055 60.1797V58.2578C214.055 54.9141 214.664 51.9688 215.883 49.4219C217.117 46.8594 218.875 44.8828 221.156 43.4922C223.453 42.1016 226.062 41.4062 228.984 41.4062C231.875 41.4062 234.453 42.0938 236.719 43.4688C238.984 44.8438 240.742 46.8047 241.992 49.3516C243.258 51.8828 243.898 54.7891 243.914 58.0703V59.6406ZM235.547 58.2109C235.547 54.8203 234.977 52.25 233.836 50.5C232.711 48.7344 231.094 47.8516 228.984 47.8516C224.859 47.8516 222.68 50.9453 222.445 57.1328L222.422 59.6406C222.422 62.9844 222.977 65.5547 224.086 67.3516C225.195 69.1484 226.844 70.0469 229.031 70.0469C231.109 70.0469 232.711 69.1641 233.836 67.3984C234.961 65.6328 235.531 63.0938 235.547 59.7812V58.2109ZM31.0078 80.875V115H22.8047V102.391L20.3906 102.695L17.3672 102.883C12.7734 102.883 9.25781 101.891 6.82031 99.9062C4.38281 97.9062 3.14844 95.0781 3.11719 91.4219V80.875H11.3438V91.3047C11.3438 93.1641 11.7891 94.5078 12.6797 95.3359C13.5859 96.1484 15.1484 96.5547 17.3672 96.5547L18.0703 96.5312C19.9922 96.4375 21.5703 96.2891 22.8047 96.0859V80.875H31.0078ZM48.2109 101.5H44.3203V115H36.0938V80.875H44.3203V94.0703H47.4844L54.0469 80.875H64.0078L54.6328 96.625L65.1797 115H55.4531L48.2109 101.5ZM87.2344 80.875H95.4609V115H87.2344V93.4844L74.9766 115H66.75V80.875H74.9766V102.414L87.2344 80.875Z" fill="white"/>
</svg>
